<svg xmlns="http://www.w3.org/2000/svg" xmlns:xlink="http://www.w3.org/1999/xlink" x="0px" y="0px"
	 viewBox="0 0 512 512" style="enable-background:new 0 0 512 512;" xml:space="preserve">
<style type="text/css">
	.st0{fill:#15B884;}
</style>
<g>
	<path class="st0" d="M439.8,83H73.2c-3.6,0-6.5-2.9-6.5-6.5v-2c0-3.6,2.9-6.5,6.5-6.5h366.6c3.6,0,6.5,2.9,6.5,6.5v2
		C446.3,80.1,443.4,83,439.8,83z"/>
</g>
<g>
	<path class="st0" d="M439.8,444H73.2c-3.6,0-6.5-2.9-6.5-6.5v-2c0-3.6,2.9-6.5,6.5-6.5h366.6c3.6,0,6.5,2.9,6.5,6.5v2
		C446.3,441.1,443.4,444,439.8,444z"/>
</g>
<g>
	<path class="st0" d="M344.7,139H73.2c-3.6,0-6.5-2.9-6.5-6.5v-2c0-3.6,2.9-6.5,6.5-6.5h271.5c3.6,0,6.5,2.9,6.5,6.5v2
		C351.2,136.1,348.2,139,344.7,139z"/>
</g>
<g>
	<path class="st0" d="M344.7,195H73.2c-3.6,0-6.5-2.9-6.5-6.5v-2c0-3.6,2.9-6.5,6.5-6.5h271.5c3.6,0,6.5,2.9,6.5,6.5v2
		C351.2,192.1,348.2,195,344.7,195z"/>
</g>
<g>
	<path class="st0" d="M268.5,389H73.2c-3.6,0-6.5-2.9-6.5-6.5v-139c0-3.6,2.9-6.5,6.5-6.5h195.3c3.6,0,6.5,2.9,6.5,6.5v139
		C275,386.1,272.1,389,268.5,389z"/>
</g>
</svg>